<svg xmlns="http://www.w3.org/2000/svg" xmlns:xlink="http://www.w3.org/1999/xlink" width="40" height="40" viewBox="0 0 40 40"><defs><style>.a{fill:none;}.b,.f{fill:#2a8356;}.b{stroke:#707070;}.c{clip-path:url(#a);}.d{fill:#121212;}.e{clip-path:url(#b);}</style><clipPath id="a"><rect class="a" width="40" height="24" transform="translate(72 35)"/></clipPath><clipPath id="b"><rect class="b" width="40" height="40"/></clipPath></defs><g transform="translate(-208 -260)"><g class="c" transform="translate(184 233)"></g><g class="e" transform="translate(208 260)"><path class="f" d="M-3017.5-951l-5.785-5.784-6.589.66.658-6.592L-3035-968.5l5.783-5.784-.658-6.59,6.589.659L-3017.5-986l5.783,5.784,6.59-.659-.659,6.589L-3000-968.5l-5.784,5.784.659,6.59-6.59-.66L-3017.5-951h0Zm0-30-12.5,12.5,12.5,12.5,12.5-12.5Zm-3.1,15.6-6.9-3.1,6.9-3.1,3.1-6.9,3.1,6.9,6.9,3.1-6.9,3.1-3.1,6.9Z" transform="translate(3037.5 988.501)"/></g></g></svg>